<?xml version="1.0" encoding="UTF-8" standalone="no"?>
<!-- Created with Inkscape (http://www.inkscape.org/) -->

<svg
   width="974.7713mm"
   height="282.75928mm"
   viewBox="0 0 974.77131 282.75928"
   version="1.1"
   id="svg1"
   xml:space="preserve"
   inkscape:version="1.3 (0e150ed, 2023-07-21)"
   sodipodi:docname="grid.svg"
   xmlns:inkscape="http://www.inkscape.org/namespaces/inkscape"
   xmlns:sodipodi="http://sodipodi.sourceforge.net/DTD/sodipodi-0.dtd"
   xmlns="http://www.w3.org/2000/svg"
   xmlns:svg="http://www.w3.org/2000/svg"><sodipodi:namedview
     id="namedview1"
     pagecolor="#ffffff"
     bordercolor="#000000"
     borderopacity="0.25"
     inkscape:showpageshadow="2"
     inkscape:pageopacity="0.0"
     inkscape:pagecheckerboard="0"
     inkscape:deskcolor="#d1d1d1"
     inkscape:document-units="mm"
     inkscape:zoom="0.069972527"
     inkscape:cx="1572.0456"
     inkscape:cy="900.35336"
     inkscape:window-width="1312"
     inkscape:window-height="449"
     inkscape:window-x="310"
     inkscape:window-y="381"
     inkscape:window-maximized="0"
     inkscape:current-layer="layer1"
     showgrid="false" /><defs
     id="defs1" /><g
     inkscape:label="Layer 1"
     inkscape:groupmode="layer"
     id="layer1"
     transform="translate(13.688915,17.846814)"><g
       id="g1"><path
         sodipodi:type="star"
         style="opacity:1;fill:#ffffff;stroke:#0072bb;stroke-width:1.2;stroke-linecap:round;stroke-linejoin:round;stroke-miterlimit:3.9;stroke-dasharray:none;stroke-dashoffset:4.7622;stroke-opacity:1;paint-order:markers fill stroke"
         id="path13"
         inkscape:flatsided="true"
         sodipodi:sides="6"
         sodipodi:cx="103.50403"
         sodipodi:cy="120.89271"
         sodipodi:r1="140.81984"
         sodipodi:r2="108.35345"
         sodipodi:arg1="-1.5707963"
         sodipodi:arg2="-1.0471976"
         inkscape:rounded="0"
         inkscape:randomized="0"
         d="m 103.50403,-19.927132 121.95356,70.409923 -1e-5,140.819839 -121.95356,70.40992 -121.953552,-70.40993 4e-6,-140.819835 z"
         inkscape:transform-center-x="1.3039878e-06"
         inkscape:transform-center-y="-1.5230577e-06"
         transform="translate(5.3606174,2.6803087)" /><path
         id="path4"
         style="opacity:1;fill:#0071bb;fill-opacity:1;stroke:#000000;stroke-width:0.203408;stroke-linecap:round;stroke-linejoin:round;stroke-miterlimit:3.9;stroke-dashoffset:4.7622;paint-order:markers fill stroke"
         inkscape:transform-center-x="2.4847308e-06"
         d="m 108.86491,-3.531979 -49.601621,28.637726 49.601621,28.6372 49.60109,-28.6372 z" /><path
         id="path5"
         style="opacity:1;fill:#0071bb;fill-opacity:1;stroke:#000000;stroke-width:0.203408;stroke-linecap:round;stroke-linejoin:round;stroke-miterlimit:3.9;stroke-dashoffset:4.7622;paint-order:markers fill stroke"
         inkscape:transform-center-x="2.4847308e-06"
         d="M 52.244555,28.941459 2.6429335,57.579185 52.244555,86.216385 101.84565,57.579185 Z" /><path
         id="path6"
         style="opacity:1;fill:#0071bb;fill-opacity:1;stroke:#000000;stroke-width:0.203408;stroke-linecap:round;stroke-linejoin:round;stroke-miterlimit:3.9;stroke-dashoffset:4.7622;paint-order:markers fill stroke"
         inkscape:transform-center-x="2.4847308e-06"
         d="m 165.48527,28.941459 -49.60163,28.637726 49.60163,28.6372 49.60109,-28.6372 z" /><path
         id="path7"
         style="opacity:1;fill:#0071bb;fill-opacity:1;stroke:#000000;stroke-width:0.203408;stroke-linecap:round;stroke-linejoin:round;stroke-miterlimit:3.9;stroke-dashoffset:4.7622;paint-order:markers fill stroke"
         inkscape:transform-center-x="3.1847308e-06"
         d="m 48.999249,93.219554 -49.60180889,-28.637402 2.68e-4,57.274868 49.60108889,28.63721 z"
         inkscape:transform-center-y="0.000131" /><path
         id="path10"
         style="opacity:1;fill:#0071bb;fill-opacity:1;stroke:#000000;stroke-width:0.203408;stroke-linecap:round;stroke-linejoin:round;stroke-miterlimit:3.9;stroke-dashoffset:4.7622;paint-order:markers fill stroke"
         inkscape:transform-center-x="-3.0002692e-06"
         d="m 168.73004,93.219554 49.60181,-28.637402 -2.7e-4,57.274868 -49.60109,28.63721 z"
         inkscape:transform-center-y="0.000131" /><path
         id="path8"
         style="opacity:1;fill:#0071bb;fill-opacity:1;stroke:#000000;stroke-width:0.203408;stroke-linecap:round;stroke-linejoin:round;stroke-miterlimit:3.9;stroke-dashoffset:4.7622;paint-order:markers fill stroke"
         inkscape:transform-center-x="3.1847308e-06"
         d="m 48.999249,157.80607 -49.60180889,-28.6374 2.68e-4,57.27487 49.60108889,28.63721 z"
         inkscape:transform-center-y="0.000131" /><path
         id="path11"
         style="opacity:1;fill:#0071bb;fill-opacity:1;stroke:#000000;stroke-width:0.203408;stroke-linecap:round;stroke-linejoin:round;stroke-miterlimit:3.9;stroke-dashoffset:4.7622;paint-order:markers fill stroke"
         inkscape:transform-center-x="-3.0002692e-06"
         d="m 168.73004,157.80607 49.60181,-28.6374 -2.7e-4,57.27487 -49.60109,28.63721 z"
         inkscape:transform-center-y="0.000131" /><path
         id="path9"
         style="opacity:1;fill:#0071bb;fill-opacity:1;stroke:#000000;stroke-width:0.203408;stroke-linecap:round;stroke-linejoin:round;stroke-miterlimit:3.9;stroke-dashoffset:4.7622;paint-order:markers fill stroke"
         inkscape:transform-center-x="3.1847308e-06"
         d="m 104.47741,190.92736 -49.60181,-28.6374 2.68e-4,57.27487 49.601092,28.63721 z"
         inkscape:transform-center-y="0.000131" /><path
         id="path12"
         style="opacity:1;fill:#0071bb;fill-opacity:1;stroke:#000000;stroke-width:0.203408;stroke-linecap:round;stroke-linejoin:round;stroke-miterlimit:3.9;stroke-dashoffset:4.7622;paint-order:markers fill stroke"
         inkscape:transform-center-x="-3.2252692e-06"
         d="m 113.25188,190.92736 49.60181,-28.6374 -2.7e-4,57.27487 -49.60109,28.63721 z"
         inkscape:transform-center-y="0.000131" /></g><path
       style="font-weight:bold;font-size:70.0038px;font-family:'Eurostile Extended';-inkscape-font-specification:'Eurostile Extended Bold';letter-spacing:0.132292px;fill:#ffffff;stroke-width:6.32498;stroke-linecap:round;stroke-linejoin:round;stroke-miterlimit:3.9;stroke-dashoffset:4.7622;paint-order:markers fill stroke"
       d="m 413.8244,124.22113 h 90.73351 l 0.20916,10.15166 q 0,26.49754 -9.6169,36.99333 -9.40787,10.49577 -42.02176,10.49577 l -34.28638,0.17204 -24.25137,0.17203 q -39.72203,0 -52.47489,-9.63546 -12.75287,-9.80754 -12.75287,-42.1552 v -6.36629 q 0,-33.552074 9.61691,-46.112604 9.61692,-12.56053 46.62114,-12.56053 l 35.12264,-0.344137 16.93413,-0.172043 27.80542,0.86029 q 20.07009,0 28.43264,8.258974 8.5716,8.258974 8.5716,25.637272 H 485.7423 q 0,-15.141486 -7.73534,-18.582697 -7.73535,-3.613309 -28.85074,-3.613309 l -28.43263,-0.172041 -16.51599,-0.172042 -27.3873,0.860316 q -15.88882,1.204427 -22.57885,4.989804 -6.48096,3.78535 -6.48096,18.926797 l -0.83625,29.59466 q 0,18.58272 3.13595,28.39025 3.345,9.63548 33.86825,9.63548 l 35.54079,0.34411 15.05256,0.17204 h 3.13596 q 9.61691,0 25.29665,-1.20446 15.67976,-1.20442 19.86103,-8.25897 4.18126,-7.05451 4.18126,-24.7769 h -73.17218 z m 285.13921,-24.08867 q 0,15.48556 -5.64473,21.33568 -5.43564,5.67805 -24.04226,7.91483 14.00726,1.54857 20.48821,5.67806 6.69003,3.95744 6.69003,14.62527 v 31.14323 H 679.7298 v -25.46517 q 0,-12.73257 -6.69005,-16.86206 -6.48095,-4.12951 -22.7879,-4.12951 h -95.12386 v 46.45674 H 538.19387 V 66.064178 h 113.52145 q 25.29664,0 36.16792,7.05452 11.08037,6.882478 11.08037,27.013762 z M 681.4023,99.272142 q 0,-13.420846 -7.73536,-17.378264 -7.73535,-4.129515 -25.50573,-4.129515 h -93.03322 v 45.080267 h 93.45135 q 18.39756,0 25.50573,-4.64566 7.31723,-4.81777 7.31723,-18.926828 z m 68.34042,81.557388 H 732.80859 V 66.064178 h 16.93413 z M 961.0824,121.81227 q 0,15.31353 -2.92688,28.56228 -2.92689,13.07674 -11.08033,19.95918 -8.15348,6.88249 -19.65196,8.77516 -11.49847,1.72064 -27.38729,1.72064 h -1.67252 -109.1311 V 66.236246 h 116.44832 q 33.86828,0 44.5305,12.90464 10.87126,12.904641 10.87126,42.671384 z m -17.56129,0.17205 q 0,-24.088678 -7.31722,-34.06828 -7.10814,-10.151677 -34.28642,-10.151677 h -95.751 v 91.537017 h 94.07852 q 29.26886,0 36.16798,-10.49579 7.10814,-10.49579 7.10814,-36.82127 z"
       id="text1"
       aria-label="GRID" /></g></svg>
